<svg width="142" height="52" viewBox="0 0 142 52" fill="none" xmlns="http://www.w3.org/2000/svg">
<path d="M6.25702 39.056L7.81756 25.2062L14.7255 36.9141L15.1562 37.6439L15.5868 36.9141L22.4977 25.2013L24.0914 39.0571L24.1424 39.5H24.5882H28.9802H29.5497L29.476 38.9352L26.02 12.4752L25.8354 11.0623L25.0966 12.2808L15.1569 28.6744L5.25211 12.2814L4.51338 11.0588L4.32838 12.4752L0.872375 38.9352L0.798611 39.5H1.36816H5.76016H6.20699L6.25702 39.056ZM35.6329 13.3H35.1329V13.8V39V39.5H35.6329H39.9169H40.4169V39V13.8V13.3H39.9169H35.6329ZM48.0669 13.3H47.5669V13.8V39V39.5H48.0669H52.4229H52.9229V39V28.648L61.8311 39.3204L61.981 39.5H62.2149H67.4349H68.5024L67.819 38.6799L56.9362 25.6205L67.2667 14.1344L68.0171 13.3H66.8949H61.7829H61.5593L61.4102 13.4667L52.9229 22.9576V13.8V13.3H52.4229H48.0669ZM72.876 13.3H72.376V13.8V39V39.5H72.876H77.16H77.66V39V13.8V13.3H77.16H72.876ZM103.706 13.3H103.206V13.8V29.5229L85.6615 12.1844L84.81 11.3429V12.54V39V39.5H85.31H89.486H89.986V39V23.2771L107.531 40.6156L108.382 41.4571V40.26V13.8V13.3H107.882H103.706ZM127.478 29.424V29.924H127.978H135.049C134.859 30.4904 134.614 31.0319 134.314 31.5489C133.909 32.2466 133.403 32.8653 132.794 33.4063C132.199 33.9355 131.488 34.348 130.656 34.6403C129.831 34.9303 128.881 35.08 127.798 35.08C126.223 35.08 124.823 34.7157 123.586 33.9958C122.345 33.274 121.351 32.2712 120.601 30.9779C119.882 29.6711 119.514 28.1501 119.514 26.4C119.514 24.6247 119.894 23.1198 120.633 21.8659L120.635 21.8625C121.384 20.5683 122.377 19.5778 123.616 18.8796L123.622 18.8762C124.86 18.1557 126.248 17.792 127.798 17.792C129.482 17.792 130.878 18.1376 132.009 18.803L132.012 18.8051C133.188 19.4831 134.095 20.3815 134.746 21.5029L135.013 21.9633L135.456 21.668L138.912 19.364L139.318 19.0932L139.057 18.6807C138.283 17.4571 137.332 16.4173 136.205 15.5648C135.101 14.6883 133.85 14.0261 132.455 13.5772C131.052 13.1019 129.498 12.868 127.798 12.868C125.846 12.868 124.021 13.1894 122.328 13.837L122.325 13.8379C120.656 14.4857 119.194 15.4222 117.944 16.6469C116.718 17.8484 115.757 19.2852 115.061 20.9512L115.059 20.9547C114.384 22.6057 114.05 24.423 114.05 26.4C114.05 28.3772 114.384 30.2054 115.058 31.8789C115.73 33.5466 116.679 34.996 117.905 36.2216L117.908 36.2251C119.157 37.4485 120.616 38.396 122.283 39.0678L122.289 39.0701C123.96 39.7186 125.774 40.04 127.726 40.04C129.779 40.04 131.628 39.6688 133.264 38.914L133.267 38.9126C134.913 38.1392 136.293 37.0872 137.399 35.7554C138.497 34.4327 139.319 32.924 139.866 31.2339L139.867 31.2319C140.413 29.5193 140.659 27.7113 140.61 25.811L140.597 25.324H140.11H127.978H127.478V25.824V29.424Z" fill="black" fill-opacity="0.01" stroke="#666666"/>
</svg>
