<svg width="103" height="52" viewBox="0 0 103 52" fill="none" xmlns="http://www.w3.org/2000/svg">
<path d="M4.89735 30.6508L4.62617 30.1791L4.17905 30.4891L1.01105 32.6851L0.660871 32.9278L0.84499 33.3121C1.42101 34.5142 2.19581 35.6251 3.16562 36.6446C4.14417 37.6733 5.28578 38.5009 6.58725 39.1266L6.58719 39.1267L6.59764 39.1315C7.93864 39.7387 9.38952 40.04 10.9439 40.04C12.0782 40.04 13.1662 39.8511 14.2048 39.4721C15.2619 39.1189 16.2114 38.6129 17.0493 37.9527L17.0494 37.9528L17.0565 37.947C17.9054 37.2524 18.5743 36.4028 19.0614 35.403C19.5547 34.3904 19.7959 33.258 19.7959 32.016C19.7959 30.8569 19.5947 29.8232 19.1749 28.9286C18.7903 28.0587 18.2633 27.2994 17.594 26.655C16.9371 25.9988 16.2033 25.4546 15.3934 25.024C14.6288 24.6049 13.8615 24.2582 13.0916 23.985C11.7615 23.5099 10.6956 23.0518 9.88644 22.6126C9.08547 22.1778 8.52514 21.7389 8.1727 21.3075C7.85544 20.8671 7.6999 20.3852 7.6999 19.848C7.6999 19.2735 7.91341 18.7774 8.37351 18.3373L8.3736 18.3374L8.38145 18.3295C8.80142 17.9096 9.51025 17.648 10.6199 17.648C11.3925 17.648 12.0401 17.8021 12.5788 18.0922L12.5888 18.0976L12.599 18.1025C13.1847 18.3845 13.6944 18.7745 14.1306 19.2761L14.1305 19.2762L14.1379 19.2843C14.5879 19.7792 14.9576 20.3175 15.2487 20.8996L15.4835 21.3692L15.941 21.1118L19.397 19.1678L19.8076 18.9368L19.6015 18.5133C19.1452 17.5753 18.5154 16.6832 17.7187 15.8362C16.9273 14.969 15.9502 14.2611 14.7956 13.7089C13.6113 13.1425 12.2387 12.868 10.6919 12.868C9.11602 12.868 7.68516 13.1684 6.40948 13.7803C5.15723 14.3685 4.1511 15.2176 3.40289 16.3262C2.64468 17.4253 2.2719 18.7018 2.2719 20.136C2.2719 21.3763 2.51256 22.4703 3.01647 23.3985L3.01644 23.3986L3.01943 23.4039C3.50452 24.272 4.11984 25.0164 4.86511 25.6332L4.86505 25.6333L4.8732 25.6397C5.59531 26.2124 6.35638 26.6993 7.15629 27.0992L7.15622 27.0994L7.16768 27.1047C7.94585 27.4695 8.65719 27.7643 9.30065 27.9872C10.3401 28.3653 11.2427 28.7528 12.0109 29.1485L12.0189 29.1526L12.027 29.1564C12.7887 29.5149 13.3575 29.9511 13.7559 30.4543L13.7558 30.4544L13.7624 30.4624C14.1242 30.9004 14.3319 31.5201 14.3319 32.376C14.3319 33.2204 14.0308 33.8846 13.4244 34.4102C12.8134 34.9397 12.0019 35.224 10.9439 35.224C10.0546 35.224 9.27041 35.0471 8.581 34.7035C7.87445 34.3273 7.2155 33.8046 6.60536 33.128C6.00471 32.4109 5.43503 31.5858 4.89735 30.6508ZM26.1756 13.3H25.6756V13.8V39V39.5H26.1756H30.4596H30.9596V39V13.8V13.3H30.4596H26.1756ZM38.6096 13.3H38.1096V13.8V39V39.5H38.6096H40.7376H41.2376H42.9296H43.4296H46.7456C49.3817 39.5 51.7207 38.9699 53.7481 37.8936L53.7523 37.8914C55.7752 36.7925 57.3552 35.2639 58.4825 33.3103C59.6371 31.3267 60.2056 29.0175 60.2056 26.4C60.2056 23.7835 59.6375 21.4857 58.4822 19.5252C57.3554 17.5484 55.775 16.0189 53.7503 14.9435C51.7225 13.8425 49.3826 13.3 46.7456 13.3H43.4296H42.9296H41.2376H40.7376H38.6096ZM43.4296 34.504V18.296H46.6376C47.8372 18.296 48.934 18.4689 49.9323 18.8093C50.9251 19.1477 51.7745 19.6522 52.4877 20.3208L52.4876 20.3208L52.4933 20.326C53.2245 20.9907 53.795 21.8258 54.2014 22.8417L54.2013 22.8417L54.205 22.8505C54.6302 23.8576 54.8496 25.0372 54.8496 26.4C54.8496 27.7628 54.6302 28.9424 54.205 29.9495L54.2049 29.9495L54.2014 29.9583C53.795 30.9742 53.2245 31.8093 52.4933 32.474L52.4932 32.474L52.4876 32.4792C51.7745 33.1478 50.9251 33.6523 49.9323 33.9907C48.934 34.3311 47.8372 34.504 46.6376 34.504H43.4296ZM66.3718 13.3H65.8718V13.8V39V39.5H66.3718H70.6558H71.1558V39V13.8V13.3H70.6558H66.3718ZM81.351 39.2025L84.0894 33.02H92.7273L95.4852 39.2037L95.6174 39.5H95.9419H100.73H101.512L101.184 38.79L88.8716 12.186L88.4179 11.2055L87.9641 12.186L75.6521 38.79L75.3235 39.5H76.1059H80.8939H81.2193L81.351 39.2025ZM85.7551 28.42L88.4173 22.2001L91.0727 28.42H85.7551Z" stroke="#666666"/>
</svg>
