<svg width="247" height="52" viewBox="0 0 247 52" fill="none" xmlns="http://www.w3.org/2000/svg">
<mask id="path-1-outside-1_99_213" maskUnits="userSpaceOnUse" x="0.248047" y="9.54001" width="245" height="39" fill="black">
<rect fill="white" x="0.248047" y="9.54001" width="245" height="39"/>
<path d="M4.51605 42.168L2.24805 45.3C2.56005 45.564 2.98005 45.84 3.50805 46.128C4.03605 46.416 4.64805 46.656 5.34405 46.848C6.04005 47.064 6.76005 47.172 7.50405 47.172C8.46405 47.172 9.35205 47.052 10.168 46.812C10.984 46.596 11.68 46.236 12.256 45.732C12.856 45.228 13.324 44.592 13.66 43.824C13.996 43.056 14.164 42.144 14.164 41.088V13.8H9.80805V40.296C9.80805 41.448 9.54405 42.252 9.01605 42.708C8.48805 43.188 7.94805 43.428 7.39605 43.428C6.79605 43.428 6.24405 43.308 5.74005 43.068C5.23605 42.828 4.82805 42.528 4.51605 42.168ZM22.0973 13.8V30.72C22.0973 32.112 22.3133 33.36 22.7453 34.464C23.1773 35.544 23.8013 36.468 24.6173 37.236C25.4573 38.004 26.4413 38.592 27.5693 39C28.6973 39.408 29.9333 39.612 31.2773 39.612C32.6213 39.612 33.8573 39.408 34.9853 39C36.1133 38.592 37.0853 38.004 37.9013 37.236C38.7173 36.468 39.3413 35.544 39.7733 34.464C40.2293 33.36 40.4573 32.112 40.4573 30.72V13.8H36.2093V30.54C36.2093 32.1 35.7893 33.36 34.9493 34.32C34.1093 35.256 32.8853 35.724 31.2773 35.724C29.6453 35.724 28.4093 35.256 27.5693 34.32C26.7533 33.36 26.3453 32.1 26.3453 30.54V13.8H22.0973ZM53.1023 23.664L60.7703 36.66L68.4383 23.664L70.2023 39H74.5943L71.1383 12.54L60.7703 29.64L50.4383 12.54L46.9823 39H51.3743L53.1023 23.664ZM84.487 26.004H88.8429C90.4269 26.004 91.819 25.776 93.019 25.32C94.243 24.864 95.191 24.204 95.863 23.34C96.559 22.452 96.907 21.384 96.907 20.136C96.907 18.696 96.559 17.508 95.863 16.572C95.191 15.636 94.243 14.94 93.019 14.484C91.819 14.028 90.4269 13.8 88.8429 13.8H81.2469V39H89.2749C91.0509 39 92.6109 38.748 93.9549 38.244C95.3229 37.716 96.391 36.912 97.159 35.832C97.951 34.752 98.347 33.384 98.347 31.728C98.347 30.528 98.107 29.496 97.627 28.632C97.147 27.768 96.475 27.06 95.611 26.508C94.771 25.956 93.8109 25.548 92.7309 25.284C91.6509 25.02 90.4989 24.888 89.2749 24.888H84.487V27.228H89.0229C89.7429 27.228 90.403 27.312 91.003 27.48C91.603 27.624 92.1189 27.876 92.5509 28.236C93.0069 28.572 93.355 29.004 93.595 29.532C93.859 30.036 93.991 30.624 93.991 31.296C93.991 32.232 93.7749 33.012 93.3429 33.636C92.9109 34.26 92.3229 34.728 91.5789 35.04C90.8349 35.352 89.9829 35.508 89.0229 35.508H85.4949V17.292H88.555C89.731 17.292 90.691 17.58 91.435 18.156C92.179 18.732 92.5509 19.548 92.5509 20.604C92.5509 21.3 92.383 21.9 92.047 22.404C91.711 22.884 91.243 23.256 90.643 23.52C90.043 23.784 89.347 23.916 88.555 23.916H84.487V26.004ZM108.413 26.4C108.413 24.672 108.773 23.136 109.493 21.792C110.237 20.424 111.257 19.356 112.553 18.588C113.849 17.82 115.325 17.436 116.981 17.436C118.685 17.436 120.173 17.82 121.445 18.588C122.741 19.356 123.749 20.424 124.469 21.792C125.189 23.136 125.549 24.672 125.549 26.4C125.549 28.128 125.177 29.676 124.433 31.044C123.713 32.388 122.705 33.444 121.409 34.212C120.137 34.98 118.661 35.364 116.981 35.364C115.325 35.364 113.849 34.98 112.553 34.212C111.257 33.444 110.237 32.388 109.493 31.044C108.773 29.676 108.413 28.128 108.413 26.4ZM103.913 26.4C103.913 28.272 104.237 30.012 104.885 31.62C105.533 33.228 106.433 34.62 107.585 35.796C108.761 36.972 110.153 37.896 111.761 38.568C113.369 39.216 115.109 39.54 116.981 39.54C118.877 39.54 120.617 39.216 122.201 38.568C123.809 37.896 125.201 36.972 126.377 35.796C127.553 34.62 128.465 33.228 129.113 31.62C129.761 30.012 130.085 28.272 130.085 26.4C130.085 24.504 129.761 22.764 129.113 21.18C128.465 19.596 127.541 18.228 126.341 17.076C125.165 15.9 123.785 14.988 122.201 14.34C120.617 13.692 118.877 13.368 116.981 13.368C115.133 13.368 113.405 13.692 111.797 14.34C110.213 14.988 108.821 15.9 107.621 17.076C106.445 18.228 105.533 19.596 104.885 21.18C104.237 22.764 103.913 24.504 103.913 26.4ZM144.757 42.168L142.489 45.3C142.801 45.564 143.221 45.84 143.749 46.128C144.277 46.416 144.889 46.656 145.585 46.848C146.281 47.064 147.001 47.172 147.745 47.172C148.705 47.172 149.593 47.052 150.409 46.812C151.225 46.596 151.921 46.236 152.497 45.732C153.097 45.228 153.565 44.592 153.901 43.824C154.237 43.056 154.405 42.144 154.405 41.088V13.8H150.049V40.296C150.049 41.448 149.785 42.252 149.257 42.708C148.729 43.188 148.189 43.428 147.637 43.428C147.037 43.428 146.485 43.308 145.981 43.068C145.477 42.828 145.069 42.528 144.757 42.168ZM162.338 13.8V30.72C162.338 32.112 162.554 33.36 162.986 34.464C163.418 35.544 164.042 36.468 164.858 37.236C165.698 38.004 166.682 38.592 167.81 39C168.938 39.408 170.174 39.612 171.518 39.612C172.862 39.612 174.098 39.408 175.226 39C176.354 38.592 177.326 38.004 178.142 37.236C178.958 36.468 179.582 35.544 180.014 34.464C180.47 33.36 180.698 32.112 180.698 30.72V13.8H176.45V30.54C176.45 32.1 176.03 33.36 175.19 34.32C174.35 35.256 173.126 35.724 171.518 35.724C169.886 35.724 168.65 35.256 167.81 34.32C166.994 33.36 166.586 32.1 166.586 30.54V13.8H162.338ZM188.663 13.8V39H192.947V13.8H188.663ZM204.229 26.4C204.229 24.6 204.625 23.04 205.417 21.72C206.233 20.376 207.289 19.344 208.585 18.624C209.905 17.88 211.333 17.508 212.869 17.508C214.069 17.508 215.149 17.664 216.109 17.976C217.069 18.288 217.933 18.72 218.701 19.272C219.493 19.8 220.177 20.4 220.753 21.072V16.032C219.697 15.168 218.557 14.508 217.333 14.052C216.109 13.596 214.573 13.368 212.725 13.368C210.877 13.368 209.149 13.68 207.541 14.304C205.957 14.928 204.577 15.828 203.401 17.004C202.225 18.18 201.301 19.572 200.629 21.18C199.981 22.764 199.657 24.504 199.657 26.4C199.657 28.296 199.981 30.048 200.629 31.656C201.301 33.24 202.225 34.62 203.401 35.796C204.577 36.972 205.957 37.872 207.541 38.496C209.149 39.12 210.877 39.432 212.725 39.432C214.573 39.432 216.109 39.204 217.333 38.748C218.557 38.292 219.697 37.632 220.753 36.768V31.728C220.177 32.4 219.493 33.012 218.701 33.564C217.933 34.092 217.069 34.512 216.109 34.824C215.149 35.136 214.069 35.292 212.869 35.292C211.333 35.292 209.905 34.932 208.585 34.212C207.289 33.468 206.233 32.424 205.417 31.08C204.625 29.736 204.229 28.176 204.229 26.4ZM231.136 39H243.844V35.256H231.136V39ZM231.136 17.544H243.844V13.8H231.136V17.544ZM231.136 27.336H243.124V23.664H231.136V27.336ZM228.508 13.8V39H232.684V13.8H228.508Z"/>
</mask>
<path d="M4.51605 42.168L2.24805 45.3C2.56005 45.564 2.98005 45.84 3.50805 46.128C4.03605 46.416 4.64805 46.656 5.34405 46.848C6.04005 47.064 6.76005 47.172 7.50405 47.172C8.46405 47.172 9.35205 47.052 10.168 46.812C10.984 46.596 11.68 46.236 12.256 45.732C12.856 45.228 13.324 44.592 13.66 43.824C13.996 43.056 14.164 42.144 14.164 41.088V13.8H9.80805V40.296C9.80805 41.448 9.54405 42.252 9.01605 42.708C8.48805 43.188 7.94805 43.428 7.39605 43.428C6.79605 43.428 6.24405 43.308 5.74005 43.068C5.23605 42.828 4.82805 42.528 4.51605 42.168ZM22.0973 13.8V30.72C22.0973 32.112 22.3133 33.36 22.7453 34.464C23.1773 35.544 23.8013 36.468 24.6173 37.236C25.4573 38.004 26.4413 38.592 27.5693 39C28.6973 39.408 29.9333 39.612 31.2773 39.612C32.6213 39.612 33.8573 39.408 34.9853 39C36.1133 38.592 37.0853 38.004 37.9013 37.236C38.7173 36.468 39.3413 35.544 39.7733 34.464C40.2293 33.36 40.4573 32.112 40.4573 30.72V13.8H36.2093V30.54C36.2093 32.1 35.7893 33.36 34.9493 34.32C34.1093 35.256 32.8853 35.724 31.2773 35.724C29.6453 35.724 28.4093 35.256 27.5693 34.32C26.7533 33.36 26.3453 32.1 26.3453 30.54V13.8H22.0973ZM53.1023 23.664L60.7703 36.66L68.4383 23.664L70.2023 39H74.5943L71.1383 12.54L60.7703 29.64L50.4383 12.54L46.9823 39H51.3743L53.1023 23.664ZM84.487 26.004H88.8429C90.4269 26.004 91.819 25.776 93.019 25.32C94.243 24.864 95.191 24.204 95.863 23.34C96.559 22.452 96.907 21.384 96.907 20.136C96.907 18.696 96.559 17.508 95.863 16.572C95.191 15.636 94.243 14.94 93.019 14.484C91.819 14.028 90.4269 13.8 88.8429 13.8H81.2469V39H89.2749C91.0509 39 92.6109 38.748 93.9549 38.244C95.3229 37.716 96.391 36.912 97.159 35.832C97.951 34.752 98.347 33.384 98.347 31.728C98.347 30.528 98.107 29.496 97.627 28.632C97.147 27.768 96.475 27.06 95.611 26.508C94.771 25.956 93.8109 25.548 92.7309 25.284C91.6509 25.02 90.4989 24.888 89.2749 24.888H84.487V27.228H89.0229C89.7429 27.228 90.403 27.312 91.003 27.48C91.603 27.624 92.1189 27.876 92.5509 28.236C93.0069 28.572 93.355 29.004 93.595 29.532C93.859 30.036 93.991 30.624 93.991 31.296C93.991 32.232 93.7749 33.012 93.3429 33.636C92.9109 34.26 92.3229 34.728 91.5789 35.04C90.8349 35.352 89.9829 35.508 89.0229 35.508H85.4949V17.292H88.555C89.731 17.292 90.691 17.58 91.435 18.156C92.179 18.732 92.5509 19.548 92.5509 20.604C92.5509 21.3 92.383 21.9 92.047 22.404C91.711 22.884 91.243 23.256 90.643 23.52C90.043 23.784 89.347 23.916 88.555 23.916H84.487V26.004ZM108.413 26.4C108.413 24.672 108.773 23.136 109.493 21.792C110.237 20.424 111.257 19.356 112.553 18.588C113.849 17.82 115.325 17.436 116.981 17.436C118.685 17.436 120.173 17.82 121.445 18.588C122.741 19.356 123.749 20.424 124.469 21.792C125.189 23.136 125.549 24.672 125.549 26.4C125.549 28.128 125.177 29.676 124.433 31.044C123.713 32.388 122.705 33.444 121.409 34.212C120.137 34.98 118.661 35.364 116.981 35.364C115.325 35.364 113.849 34.98 112.553 34.212C111.257 33.444 110.237 32.388 109.493 31.044C108.773 29.676 108.413 28.128 108.413 26.4ZM103.913 26.4C103.913 28.272 104.237 30.012 104.885 31.62C105.533 33.228 106.433 34.62 107.585 35.796C108.761 36.972 110.153 37.896 111.761 38.568C113.369 39.216 115.109 39.54 116.981 39.54C118.877 39.54 120.617 39.216 122.201 38.568C123.809 37.896 125.201 36.972 126.377 35.796C127.553 34.62 128.465 33.228 129.113 31.62C129.761 30.012 130.085 28.272 130.085 26.4C130.085 24.504 129.761 22.764 129.113 21.18C128.465 19.596 127.541 18.228 126.341 17.076C125.165 15.9 123.785 14.988 122.201 14.34C120.617 13.692 118.877 13.368 116.981 13.368C115.133 13.368 113.405 13.692 111.797 14.34C110.213 14.988 108.821 15.9 107.621 17.076C106.445 18.228 105.533 19.596 104.885 21.18C104.237 22.764 103.913 24.504 103.913 26.4ZM144.757 42.168L142.489 45.3C142.801 45.564 143.221 45.84 143.749 46.128C144.277 46.416 144.889 46.656 145.585 46.848C146.281 47.064 147.001 47.172 147.745 47.172C148.705 47.172 149.593 47.052 150.409 46.812C151.225 46.596 151.921 46.236 152.497 45.732C153.097 45.228 153.565 44.592 153.901 43.824C154.237 43.056 154.405 42.144 154.405 41.088V13.8H150.049V40.296C150.049 41.448 149.785 42.252 149.257 42.708C148.729 43.188 148.189 43.428 147.637 43.428C147.037 43.428 146.485 43.308 145.981 43.068C145.477 42.828 145.069 42.528 144.757 42.168ZM162.338 13.8V30.72C162.338 32.112 162.554 33.36 162.986 34.464C163.418 35.544 164.042 36.468 164.858 37.236C165.698 38.004 166.682 38.592 167.81 39C168.938 39.408 170.174 39.612 171.518 39.612C172.862 39.612 174.098 39.408 175.226 39C176.354 38.592 177.326 38.004 178.142 37.236C178.958 36.468 179.582 35.544 180.014 34.464C180.47 33.36 180.698 32.112 180.698 30.72V13.8H176.45V30.54C176.45 32.1 176.03 33.36 175.19 34.32C174.35 35.256 173.126 35.724 171.518 35.724C169.886 35.724 168.65 35.256 167.81 34.32C166.994 33.36 166.586 32.1 166.586 30.54V13.8H162.338ZM188.663 13.8V39H192.947V13.8H188.663ZM204.229 26.4C204.229 24.6 204.625 23.04 205.417 21.72C206.233 20.376 207.289 19.344 208.585 18.624C209.905 17.88 211.333 17.508 212.869 17.508C214.069 17.508 215.149 17.664 216.109 17.976C217.069 18.288 217.933 18.72 218.701 19.272C219.493 19.8 220.177 20.4 220.753 21.072V16.032C219.697 15.168 218.557 14.508 217.333 14.052C216.109 13.596 214.573 13.368 212.725 13.368C210.877 13.368 209.149 13.68 207.541 14.304C205.957 14.928 204.577 15.828 203.401 17.004C202.225 18.18 201.301 19.572 200.629 21.18C199.981 22.764 199.657 24.504 199.657 26.4C199.657 28.296 199.981 30.048 200.629 31.656C201.301 33.24 202.225 34.62 203.401 35.796C204.577 36.972 205.957 37.872 207.541 38.496C209.149 39.12 210.877 39.432 212.725 39.432C214.573 39.432 216.109 39.204 217.333 38.748C218.557 38.292 219.697 37.632 220.753 36.768V31.728C220.177 32.4 219.493 33.012 218.701 33.564C217.933 34.092 217.069 34.512 216.109 34.824C215.149 35.136 214.069 35.292 212.869 35.292C211.333 35.292 209.905 34.932 208.585 34.212C207.289 33.468 206.233 32.424 205.417 31.08C204.625 29.736 204.229 28.176 204.229 26.4ZM231.136 39H243.844V35.256H231.136V39ZM231.136 17.544H243.844V13.8H231.136V17.544ZM231.136 27.336H243.124V23.664H231.136V27.336ZM228.508 13.8V39H232.684V13.8H228.508Z" stroke="#666666" stroke-width="2" mask="url(#path-1-outside-1_99_213)"/>
</svg>
