<svg width="145" height="52" viewBox="0 0 145 52" fill="none" xmlns="http://www.w3.org/2000/svg">
<path d="M6.25702 39.056L7.81756 25.2062L14.7255 36.9141L15.1562 37.6439L15.5868 36.9141L22.4977 25.2013L24.0914 39.0571L24.1424 39.5H24.5882H28.9802H29.5497L29.476 38.9352L26.02 12.4752L25.8354 11.0623L25.0966 12.2808L15.1569 28.6744L5.25211 12.2814L4.51338 11.0588L4.32838 12.4752L0.872375 38.9352L0.798611 39.5H1.36816H5.76016H6.20699L6.25702 39.056ZM35.6329 13.3H35.1329V13.8V39V39.5H35.6329H39.9889H40.4889V39V28.648L49.397 39.3204L49.5469 39.5H49.7809H55.0009H56.0684L55.385 38.6799L44.5021 25.6205L54.8326 14.1344L55.583 13.3H54.4609H49.3489H49.1252L48.9761 13.4667L40.4889 22.9576V13.8V13.3H39.9889H35.6329ZM81.5309 35.008H78.5029V27.728H81.5309C82.2122 27.728 82.8261 27.8075 83.3761 27.9615L83.3851 27.964L83.3942 27.9662C83.9268 28.094 84.3714 28.314 84.7388 28.6201L84.7503 28.6297L84.7623 28.6385C85.1479 28.9227 85.4421 29.2866 85.6477 29.7389L85.6535 29.7516L85.66 29.764C85.8802 30.1845 85.9989 30.6902 85.9989 31.296C85.9989 32.1543 85.8016 32.8288 85.4398 33.3514C85.0655 33.892 84.5554 34.3013 83.8935 34.5789C83.2212 34.8608 82.4369 35.008 81.5309 35.008ZM81.0629 23.416H78.5029V17.792H81.0629C82.1563 17.792 83.0004 18.0586 83.6368 18.5514C84.2424 19.0202 84.5589 19.6811 84.5589 20.604C84.5589 21.2141 84.4134 21.7127 84.142 22.1219C83.8647 22.5162 83.4739 22.8316 82.9495 23.0623C82.4248 23.2932 81.7997 23.416 81.0629 23.416ZM88.3908 26.0884C87.9064 25.7703 87.3864 25.4986 86.8315 25.2725C87.6078 24.8424 88.2553 24.3026 88.7644 23.6484C89.5368 22.663 89.9149 21.4832 89.9149 20.136C89.9149 18.6158 89.5468 17.3172 88.7745 16.2769C88.0376 15.252 87.0051 14.5015 85.7032 14.0161C84.4353 13.5345 82.9813 13.3 81.3509 13.3H73.7549H73.2549V13.8V39V39.5H73.7549H81.7829C83.6051 39.5 85.2268 39.2415 86.6385 38.7122L86.6429 38.7105C88.091 38.1515 89.2415 37.2916 90.0722 36.1248C90.9392 34.941 91.3549 33.4634 91.3549 31.728C91.3549 30.4611 91.1012 29.3418 90.572 28.3892C90.0506 27.4508 89.3207 26.6831 88.3908 26.0884ZM99.8786 39.2025L102.617 33.02H111.255L114.013 39.2037L114.145 39.5H114.469H119.257H120.04L119.711 38.79L107.399 12.186L106.945 11.2055L106.492 12.186L94.1797 38.79L93.8511 39.5H94.6335H99.4215H99.7469L99.8786 39.2025ZM104.283 28.42L106.945 22.2001L109.6 28.42H104.283ZM129.457 17.972H132.305C133.207 17.972 133.972 18.1297 134.613 18.4291L134.619 18.4317C135.285 18.7323 135.783 19.1528 136.134 19.6896C136.478 20.2157 136.665 20.8833 136.665 21.72C136.665 22.5272 136.481 23.1983 136.132 23.7537C135.781 24.2889 135.284 24.7083 134.619 25.0083L134.614 25.0109C133.972 25.3103 133.207 25.468 132.305 25.468H129.457V17.972ZM127.229 13.3H126.729H124.709H124.209V13.8V39V39.5H124.709H128.957H129.457V39V29.96H131.284L137.505 39.2776L137.654 39.5H137.921H143.033H144.001L143.441 38.7106L136.728 29.2504C136.976 29.1562 137.217 29.0526 137.452 28.9393C138.897 28.2545 140.029 27.282 140.827 26.0193C141.629 24.7527 142.021 23.2772 142.021 21.612C142.021 19.9484 141.63 18.4839 140.827 17.2397C140.028 15.9775 138.897 15.0053 137.452 14.3206C136.027 13.6342 134.367 13.3 132.485 13.3H129.457H128.957H127.229Z" stroke="#666666"/>
</svg>
