<svg width="20" height="21" viewBox="0 0 20 21" fill="none" xmlns="http://www.w3.org/2000/svg">
<path d="M4.3999 3.90002C4.13469 3.90002 3.88033 4.00538 3.6928 4.19292C3.50526 4.38045 3.3999 4.63481 3.3999 4.90002V9.48586C3.3999 9.75169 3.50574 10.0059 3.69324 10.1934L10.6932 17.1934C10.8807 17.3806 11.1349 17.4858 11.3999 17.4858C11.6649 17.4858 11.9191 17.3806 12.1066 17.1934L16.6932 12.6067C16.8805 12.4192 16.9857 12.165 16.9857 11.9C16.9857 11.635 16.8805 11.3809 16.6932 11.1934L9.69324 4.19336C9.60037 4.10037 9.49008 4.02661 9.36868 3.97627C9.24728 3.92594 9.11715 3.90003 8.98574 3.90002H4.3999ZM8.3999 7.40002C8.3999 7.79785 8.24187 8.17938 7.96056 8.46068C7.67926 8.74199 7.29773 8.90002 6.8999 8.90002C6.50208 8.90002 6.12055 8.74199 5.83924 8.46068C5.55794 8.17938 5.3999 7.79785 5.3999 7.40002C5.3999 7.0022 5.55794 6.62067 5.83924 6.33936C6.12055 6.05806 6.50208 5.90002 6.8999 5.90002C7.29773 5.90002 7.67926 6.05806 7.96056 6.33936C8.24187 6.62067 8.3999 7.0022 8.3999 7.40002Z" fill="#222222"/>
</svg>
