<svg width="20" height="21" viewBox="0 0 20 21" fill="none" xmlns="http://www.w3.org/2000/svg">
<path d="M8.3999 7.40002C8.3999 7.79785 8.24187 8.17938 7.96056 8.46068C7.67926 8.74199 7.29773 8.90002 6.8999 8.90002C6.50208 8.90002 6.12055 8.74199 5.83924 8.46068C5.55794 8.17938 5.3999 7.79785 5.3999 7.40002C5.3999 7.0022 5.55794 6.62067 5.83924 6.33936C6.12055 6.05806 6.50208 5.90002 6.8999 5.90002C7.29773 5.90002 7.67926 6.05806 7.96056 6.33936C8.24187 6.62067 8.3999 7.0022 8.3999 7.40002ZM7.3999 7.40002C7.3999 7.26742 7.34722 7.14024 7.25346 7.04647C7.15969 6.9527 7.03251 6.90002 6.8999 6.90002C6.76729 6.90002 6.64012 6.9527 6.54635 7.04647C6.45258 7.14024 6.3999 7.26742 6.3999 7.40002C6.3999 7.53263 6.45258 7.65981 6.54635 7.75358C6.64012 7.84735 6.76729 7.90002 6.8999 7.90002C7.03251 7.90002 7.15969 7.84735 7.25346 7.75358C7.34722 7.65981 7.3999 7.53263 7.3999 7.40002Z" fill="#444444"/>
<path d="M4.3999 3.90002H8.98574C9.11715 3.90003 9.24728 3.92594 9.36868 3.97627C9.49008 4.02661 9.60037 4.10037 9.69324 4.19336L16.6932 11.1934C16.8805 11.3809 16.9857 11.635 16.9857 11.9C16.9857 12.165 16.8805 12.4192 16.6932 12.6067L12.1066 17.1934C11.9191 17.3806 11.6649 17.4858 11.3999 17.4858C11.1349 17.4858 10.8807 17.3806 10.6932 17.1934L3.69324 10.1934C3.60025 10.1005 3.52648 9.9902 3.47615 9.8688C3.42582 9.74741 3.39991 9.61728 3.3999 9.48586V4.90002C3.3999 4.63481 3.50526 4.38045 3.6928 4.19292C3.88033 4.00538 4.13469 3.90002 4.3999 3.90002ZM4.3999 9.48586L11.3999 16.4859L15.9857 11.9L8.98574 4.90002H4.3999V9.48586Z" fill="#444444"/>
</svg>
