<svg width="80" height="34" viewBox="0 0 80 34" fill="none" xmlns="http://www.w3.org/2000/svg">
<path fill-rule="evenodd" clip-rule="evenodd" d="M78.0476 25.7013C79.1259 25.7013 80 26.5974 80 27.7028V28.2031C80 29.3085 79.1259 30.2046 78.0476 30.2046H75.8116C75.3996 30.2046 74.946 30.3797 74.3182 30.6963C74.227 30.7423 74.1303 30.7925 74.0289 30.845C73.5121 31.113 72.8734 31.4441 72.2272 31.6085C71.3112 31.8415 70.1159 31.8732 68.7788 31.9056L68.769 31.9059L42.395 31.9999C41.7877 32.0021 41.0467 31.9404 40.4075 31.6469C39.7079 31.3256 39.1095 30.7061 39.0055 29.7107L39.9762 29.6042L39 29.6042V26.4018H39.9762L39.0042 26.3096C39.0952 25.3014 39.7008 24.6772 40.4027 24.3557C41.0431 24.0624 41.7878 24 42.3938 24L68.7786 24L68.8015 24.0011C69.048 24.013 69.2971 24.0228 69.5422 24.0325C69.9486 24.0485 70.3437 24.0641 70.6972 24.0877C71.2746 24.1263 71.8493 24.1912 72.3694 24.3443C72.9549 24.5166 73.5361 24.8292 74.0052 25.0815C74.1139 25.1399 74.2165 25.1951 74.3118 25.2446C74.8876 25.5436 75.3 25.7013 75.6779 25.7013H78.0476ZM40.9524 26.4585V29.5388C40.9661 29.6203 40.9907 29.6594 41.0085 29.6823C41.0343 29.7154 41.0888 29.7667 41.2057 29.8203C41.4628 29.9384 41.8696 30.0003 42.3882 29.9985L68.7425 29.9045C70.1519 29.8702 71.0979 29.8335 71.757 29.6659C72.1696 29.561 72.5685 29.3558 73.0807 29.0923C73.1993 29.0313 73.324 28.9671 73.4564 28.9004C74.0881 28.5818 74.9037 28.2031 75.8116 28.2031L78.0476 28.2031V27.7028H75.6779C74.7998 27.7028 74.0269 27.3402 73.4296 27.0301C73.278 26.9514 73.1377 26.8764 73.0058 26.8059C72.5579 26.5666 72.2062 26.3786 71.8307 26.2681C71.5166 26.1757 71.1106 26.1211 70.5701 26.085C70.2366 26.0627 69.8922 26.0492 69.5111 26.0343C69.2688 26.0248 69.0116 26.0148 68.733 26.0015L42.3938 26.0015C41.8717 26.0015 41.4595 26.0638 41.1992 26.1831C41.0809 26.2373 41.0277 26.2882 41.004 26.3189C40.9881 26.3394 40.9644 26.3764 40.9524 26.4585Z" fill="#222222"/>
<path fill-rule="evenodd" clip-rule="evenodd" d="M47.2611 3.97585C47.2747 3.98948 47.2873 4.00219 47.2989 4.01381L49.1491 5.86241C49.3144 6.02756 49.5392 6.26016 49.7228 6.53928C49.9099 6.82389 50.0906 7.21063 50.0993 7.6827C50.1126 8.40277 49.7042 8.94053 49.4844 9.2149L47.7753 11.3486C47.7732 11.3511 47.7719 11.3542 47.7713 11.3573C47.702 11.7646 47.5078 12.1404 47.2154 12.4325L27.6431 31.9886C27.2451 32.3863 26.6428 32.8112 25.9083 32.907C24.8682 33.0427 24.0747 32.446 23.601 31.9727L21.3913 29.7648C20.9336 29.3074 20.3288 28.4872 20.4603 27.4739C20.5641 26.6733 21.0243 26.0888 21.4289 25.6835L40.9428 6.14004C41.2035 5.87888 41.5278 5.68997 41.8837 5.59186C41.9045 5.58613 41.9239 5.57607 41.9405 5.56236L43.9173 3.93464C43.9375 3.91795 43.9609 3.89835 43.9869 3.87651C44.133 3.75381 44.363 3.56066 44.6022 3.41834C44.9089 3.23574 45.365 3.04896 45.9171 3.14716C46.3083 3.21673 46.6095 3.40652 46.8169 3.56863C46.9942 3.70715 47.1556 3.86958 47.2611 3.97585ZM45.599 5.12254C45.5569 5.14878 45.5044 5.18662 45.4349 5.24185C45.3819 5.28403 45.3378 5.32091 45.2861 5.3642C45.2531 5.39177 45.217 5.42195 45.1735 5.45775L43.1968 7.08547C42.9659 7.27559 42.6975 7.41495 42.409 7.49446C42.3834 7.50154 42.36 7.51516 42.3412 7.534L22.8273 27.0775C22.5436 27.3617 22.4406 27.5623 22.4192 27.7275C22.4147 27.7617 22.417 27.834 22.4779 27.9578C22.5401 28.0844 22.6463 28.2275 22.788 28.3692L24.9978 30.5771C25.341 30.92 25.547 30.9637 25.6526 30.9499C25.7954 30.9313 26.0188 30.8204 26.2464 30.593L45.8186 11.0369C45.8214 11.0341 45.8233 11.0305 45.824 11.0266C45.8807 10.6931 46.0215 10.3795 46.2331 10.1153L47.9422 7.98162C48.0331 7.86819 48.0827 7.79335 48.1097 7.73892C48.115 7.72825 48.1186 7.71993 48.1211 7.71375C48.1154 7.69832 48.1021 7.66895 48.072 7.62318C48.0065 7.52365 47.9049 7.41047 47.7523 7.25801L45.9022 5.40941C45.885 5.39221 45.869 5.37617 45.8538 5.36097C45.8077 5.31468 45.7693 5.27614 45.7278 5.23648C45.6757 5.18654 45.6346 5.15034 45.6 5.12328C45.5997 5.12303 45.5993 5.12278 45.599 5.12254ZM48.125 7.72704C48.125 7.72703 48.1249 7.72659 48.1248 7.72572Z" fill="#222222"/>
<path fill-rule="evenodd" clip-rule="evenodd" d="M4.68607 2.00405C4.6858 2.00464 4.68516 2.00606 4.68501 2.0098C4.64193 3.05178 4.57355 3.97686 4.36326 4.77849C4.20086 5.39753 3.83817 5.85783 3.50519 6.19852C3.30715 6.40114 3.03991 6.63339 2.82672 6.81867C2.72719 6.90516 2.63944 6.98142 2.576 7.03965C2.33285 7.26286 2.17645 7.58455 2.0894 8.06471C2.00059 8.55456 2.00062 9.10098 2.00065 9.736L2.00065 27.258C2.00065 28.3393 2.03401 28.8682 2.38437 29.2539C2.62811 29.5222 3.00765 29.7196 3.54378 29.8437C4.07983 29.9677 4.68982 29.9996 5.30669 29.9996H11.7298C11.7729 29.9996 11.8157 29.9996 11.8581 29.9997C12.4976 30.0001 13.063 30.0004 13.5728 29.9097C14.0986 29.8162 14.4327 29.6461 14.6487 29.3892C14.7909 29.2202 14.8912 28.9768 14.9463 28.607C15.0001 28.2452 15 27.854 14.9998 27.3899C14.9998 27.3632 14.9998 27.3363 14.9998 27.3091L14.9998 10.1285C14.9998 10.0967 14.9998 10.0652 14.9998 10.0338C15 9.29606 15.0002 8.68342 14.8847 8.15947C14.7738 7.65591 14.5825 7.36211 14.2615 7.17526C13.7763 6.89279 12.941 6.80354 12.0749 6.80354H10.4045C9.93266 6.80354 9.35945 6.7495 8.8321 6.53482C8.28133 6.31061 7.73195 5.88572 7.48318 5.15463C7.23676 4.43047 7.10042 3.41429 6.99554 2.01598C6.99521 2.01163 6.99431 2.00915 6.99345 2.00738C6.99237 2.00515 6.99079 2.00299 6.98896 2.00128C6.98833 2.00068 6.9878 2.00026 6.9874 1.99997L4.68915 1.99997C4.68902 2.00009 4.6893 1.99983 4.68915 1.99997C4.68791 2.00117 4.68659 2.00292 4.68607 2.00405ZM2.68685 1.92718C2.73096 0.860148 3.60435 0 4.68876 0L6.9878 0C8.0521 0 8.91197 0.828736 8.9898 1.86638C9.09483 3.26666 9.22061 4.05244 9.37642 4.51033C9.39135 4.5542 9.42006 4.61485 9.58609 4.68243C9.77553 4.75955 10.0578 4.80356 10.4045 4.80356H12.0749C12.9273 4.80356 14.2675 4.86464 15.2676 5.44677C16.2242 6.00359 16.6505 6.8794 16.8377 7.7291C17.0023 8.47599 17.0009 9.29764 16.9998 9.96928C16.9997 10.0234 16.9996 10.0765 16.9996 10.1285V27.3091C16.9996 27.3452 16.9997 27.3823 16.9997 27.4202C17.0004 27.8502 17.0012 28.3854 16.9243 28.9015C16.8388 29.4759 16.6463 30.1211 16.1793 30.6765C15.5474 31.4278 14.698 31.741 13.923 31.8788C13.2292 32.0022 12.4898 32.0009 11.8903 31.9998C11.8356 31.9997 11.782 31.9996 11.7298 31.9996H5.30669C4.6447 31.9996 3.85343 31.9681 3.09295 31.7922C2.33255 31.6162 1.5203 31.277 0.904115 30.5987C-0.00778759 29.5948 -0.00288279 28.2861 0.000412643 27.4069C0.000604318 27.3558 0.000790629 27.3061 0.000790629 27.258L0.000790629 9.77269C0.000790629 9.73892 0.000763928 9.70464 0.00073687 9.6699C0.00028462 9.09014 -0.000269305 8.38022 0.121618 7.70791C0.254274 6.97621 0.547417 6.18706 1.22362 5.5663C1.3823 5.42064 1.5112 5.30994 1.62675 5.21069C1.78724 5.07286 1.92199 4.95713 2.07503 4.80055C2.29577 4.5747 2.39203 4.41134 2.42886 4.27096C2.57887 3.69912 2.64384 2.96748 2.68685 1.92718Z" fill="#222222"/>
</svg>
